<svg xmlns="http://www.w3.org/2000/svg" viewBox="576 135 521 464" width="441" height="384"><path id="path_6db431fd-b4b6-40e2-2e39-379f8ac8229d" d="M113.63,107.40 Q118.31,114.55 121.26,125.58 T121.53,148.00 113.55,167.46 100.37,180.82 81.13,185.59 56.82,174.52 38.80,156.67 29.71,141.47 23.33,124.63 21.72,105.76 27.92,85.86 44.43,67.49 72.27,52.59 110.26,41.04 153.79,32.00 195.70,24.77 299.13,10.77 383.00,-0.00 383.00,0.00 300.14,16.75 197.82,36.83 156.41,44.29 114.17,53.43 78.83,64.40 54.97,76.92 42.26,90.59 39.73,111.58 49.52,138.03 66.45,157.55 83.50,163.45 97.23,153.88 101.67,135.53 98.65,122.14 95.83,117.48 95.02,115.16 94.79,112.71 95.16,110.27 96.10,108.00 97.55,106.01 99.44,104.43 101.66,103.35 104.06,102.83 106.52,102.90 108.89,103.56 111.04,104.77 112.84,106.45 Z" fill="#ff5722" stroke="transparent" stroke-width="0" stroke-linejoin="round" stroke-linecap="round" pointer-events="all" transform="translate(616, 175)"/><path id="path_eae09574-2149-4fa2-3506-311ff57b3b87" d="M7.07,-1.47 Q11.48,21.71 13.50,38.54 T17.34,71.16 21.39,106.65 25.93,145.08 30.46,179.80 39.35,263.89 46.00,332.00 46.00,332.00 33.48,264.72 18.63,181.39 13.89,146.54 9.08,108.12 4.66,72.75 0.39,40.75 -4.46,12.98 -7.15,0.61 -7.09,-1.12 -6.61,-2.79 -5.75,-4.29 -4.56,-5.54 -3.10,-6.47 -1.46,-7.02 0.26,-7.17 1.97,-6.90 3.56,-6.23 4.95,-5.19 6.05,-3.86 6.80,-2.30 Z" fill="#ff5722" stroke="transparent" stroke-width="0" stroke-linejoin="round" stroke-linecap="round" pointer-events="all" transform="translate(827, 227)"/><path id="path_ad8c0b0f-2be0-4114-2f26-47109956d7e5" d="M7.98,-1.56 Q10.90,14.26 12.58,23.52 T15.87,42.99 19.26,63.05 22.86,82.01 26.38,99.17 31.13,120.94 36.60,166.33 39.00,198.00 39.00,198.00 29.48,167.77 17.44,123.70 13.38,101.81 9.92,84.63 5.85,65.61 1.63,45.77 -2.59,26.57 -6.36,9.43 -8.05,0.58 -7.96,-1.36 -7.40,-3.23 -6.41,-4.91 -5.05,-6.30 -3.40,-7.33 -1.55,-7.93 0.40,-8.07 2.31,-7.74 4.10,-6.96 5.64,-5.77 6.86,-4.26 7.68,-2.49 Z" fill="#ff5722" stroke="transparent" stroke-width="0" stroke-linejoin="round" stroke-linecap="round" pointer-events="all" transform="translate(932, 313)"/><path id="path_b622dd87-01fc-47e3-324e-fbbd87123731" d="M132.25,-1.72 Q147.30,-2.48 161.47,-3.47 T186.99,-5.13 207.73,-5.82 227.40,-4.82 245.95,0.96 258.10,13.77 262.76,32.72 253.66,51.31 233.08,62.05 205.74,69.71 94.55,97.14 0.00,120.00 -0.00,120.00 92.09,89.08 200.10,52.77 229.38,39.82 238.41,23.98 225.23,14.33 207.63,12.69 187.96,12.89 162.89,14.78 141.24,16.95 132.57,17.67 130.27,17.29 128.13,16.37 126.27,14.96 124.80,13.14 123.81,11.03 123.35,8.74 123.45,6.41 124.11,4.17 125.28,2.15 126.91,0.48 128.88,-0.76 131.10,-1.49 Z" fill="#ff5722" stroke="transparent" stroke-width="0" stroke-linejoin="round" stroke-linecap="round" pointer-events="all" transform="translate(799, 297)"/><path id="path_b6ef8e84-6941-48bc-15b9-cdbfd21ec4c0" d="M21.84,17.24 Q25.39,19.47 31.47,26.83 T39.38,42.02 37.08,59.14 24.51,69.49 8.75,65.89 -2.77,54.16 -8.75,38.64 -7.20,21.79 4.30,7.17 21.16,0.64 40.15,1.35 64.22,1.18 78.00,-0.00 78.00,0.00 66.93,3.48 47.87,10.18 31.74,18.28 18.57,30.15 11.85,35.95 9.20,33.93 7.50,32.08 6.29,29.86 5.65,27.43 5.61,24.91 6.17,22.45 7.30,20.20 8.94,18.29 10.99,16.83 13.34,15.89 15.83,15.55 18.34,15.81 20.71,16.67 Z" fill="#00bcd4" stroke="transparent" stroke-width="0" stroke-linejoin="round" stroke-linecap="round" pointer-events="all" transform="translate(666, 245)"/><path id="path_88d6fc0b-9090-4b85-3458-6b38f0c42c2d" d="M8.67,-9.54 Q14.83,-9.83 23.04,-9.92 T40.20,-9.47 56.19,-3.04 59.94,11.28 48.22,22.47 30.85,24.53 13.69,22.90 3.23,19.48 1.00,17.00 1.00,17.00 1.98,18.89 11.10,20.25 27.05,15.92 25.16,11.77 12.41,11.49 8.06,11.43 5.60,10.90 3.33,9.80 1.38,8.18 -0.11,6.15 -1.08,3.82 -1.46,1.33 -1.24,-1.19 -0.42,-3.57 0.95,-5.69 2.79,-7.43 4.98,-8.67 7.42,-9.35 Z" fill="#00bcd4" stroke="transparent" stroke-width="0" stroke-linejoin="round" stroke-linecap="round" pointer-events="all" transform="translate(951, 323)"/></svg>
